<?xml version="1.0" encoding="UTF-8"?>
<!DOCTYPE svg PUBLIC "-//W3C//DTD SVG 1.1//EN" "http://www.w3.org/Graphics/SVG/1.1/DTD/svg11.dtd">
<svg version="1.1" xmlns="http://www.w3.org/2000/svg" xmlns:xlink="http://www.w3.org/1999/xlink" x="0" y="0" width="138.022" height="83.719" viewBox="0, 0, 238.022, 83.719">
  <defs>
    <linearGradient id="Gradient_1" gradientUnits="userSpaceOnUse" x1="164.838" y1="469.711" x2="164.838" y2="397.089">
      <stop offset="0" stop-color="#FFF598"/>
      <stop offset="1" stop-color="#FFB713"/>
    </linearGradient>
  </defs>
  <g id="Button_options_" transform="translate(-45.327, -401.973)">
    <g>
      <path d="M59.827,403.473 L269.849,403.473 C277.029,403.473 282.849,409.294 282.849,416.473 L282.849,463.096 C282.849,470.275 277.029,476.096 269.849,476.096 L59.827,476.096 C52.647,476.096 46.827,470.275 46.827,463.096 L46.827,416.473 C46.827,409.294 52.647,403.473 59.827,403.473 z" fill="url(#Gradient_1)"/>
      <path d="M59.827,403.473 L269.849,403.473 C277.029,403.473 282.849,409.294 282.849,416.473 L282.849,463.096 C282.849,470.275 277.029,476.096 269.849,476.096 L59.827,476.096 C52.647,476.096 46.827,470.275 46.827,463.096 L46.827,416.473 C46.827,409.294 52.647,403.473 59.827,403.473 z" fill-opacity="0" stroke="#000000" stroke-width="1"/>
    </g>
    <text transform="matrix(1, 0, 0, 1, 164.338, 449.381)">
      <tspan x="-80.675" y="7.689" font-family="Phosphate-Inline" font-size="47" fill="#000000">Attack</tspan>
    </text>
  </g>
</svg>
