<?xml version="1.0" encoding="UTF-8"?>
<!DOCTYPE svg PUBLIC "-//W3C//DTD SVG 1.1//EN" "http://www.w3.org/Graphics/SVG/1.1/DTD/svg11.dtd">
<svg version="1.1" xmlns="http://www.w3.org/2000/svg" xmlns:xlink="http://www.w3.org/1999/xlink" x="0" y="0" width="131.036" height="74.622" viewBox="0, 0, 331.036, 74.622">
  <defs>
    <linearGradient id="Gradient_1" gradientUnits="userSpaceOnUse" x1="347.982" y1="447.7" x2="677.018" y2="447.7">
      <stop offset="0" stop-color="#FFFFFF"/>
      <stop offset="1" stop-color="#38C400"/>
    </linearGradient>
  </defs>
  <g id="End_Screen" transform="translate(-346.482, -409.888)">
    <g>
      <path d="M366.105,411.388 L658.895,411.388 C668.904,411.388 677.018,417.209 677.018,424.388 L677.018,471.011 C677.018,478.19 668.904,484.011 658.895,484.011 L366.105,484.011 C356.096,484.011 347.982,478.19 347.982,471.011 L347.982,424.388 C347.982,417.209 356.096,411.388 366.105,411.388 z" fill="url(#Gradient_1)"/>
      <path d="M366.105,411.388 L658.895,411.388 C668.904,411.388 677.018,417.209 677.018,424.388 L677.018,471.011 C677.018,478.19 668.904,484.011 658.895,484.011 L366.105,484.011 C356.096,484.011 347.982,478.19 347.982,471.011 L347.982,424.388 C347.982,417.209 356.096,411.388 366.105,411.388 z" fill-opacity="0" stroke="#000000" stroke-width="1"/>
    </g>
    <text transform="matrix(1, 0, 0, 1, 512, 447.2)">
      <tspan x="-113.184" y="8.689" font-family="Phosphate-Solid" font-size="48" fill="#151515">New Game</tspan>
    </text>
  </g>
</svg>
